<svg id="Layer_1" data-name="Layer 1" xmlns="http://www.w3.org/2000/svg" viewBox="0 0 188.46 157.42"><defs><style>.cls-1{fill:#35a7ff;}.cls-2{fill:#ff5964;}.cls-3{fill:#6bf178;}</style></defs><title>GTM_logo</title><path class="cls-1" d="M68.45,106.35A49.74,49.74,0,0,1,50,110a49.09,49.09,0,0,1-21-4.34,47.53,47.53,0,0,1-15.75-11.7A51.15,51.15,0,0,1,3.39,77,59.09,59.09,0,0,1,0,57.11,74.48,74.48,0,0,1,3.17,35.25a53.77,53.77,0,0,1,9.42-18.18A45.76,45.76,0,0,1,28.19,4.64Q37.54,0,50,0A63.37,63.37,0,0,1,66.17,2,40.8,40.8,0,0,1,79.71,8.24a37.18,37.18,0,0,1,10,10.82,42.52,42.52,0,0,1,5.52,15.82h-14a27.56,27.56,0,0,0-3.83-10.38,24.69,24.69,0,0,0-6.92-7.14,30.67,30.67,0,0,0-9.35-4.2A42.87,42.87,0,0,0,50,11.78a32,32,0,0,0-27.6,13.91A44,44,0,0,0,16,40,65.64,65.64,0,0,0,14,56.38,53,53,0,0,0,16.34,72.2a41.26,41.26,0,0,0,6.92,13.4,33.83,33.83,0,0,0,11.26,9.27A33.36,33.36,0,0,0,50,98.33a37.5,37.5,0,0,0,14.57-2.65A30,30,0,0,0,81.84,77.5,35.76,35.76,0,0,0,83.76,64H50.2V52.26H96.27V107.6H87.44L83.76,94.5A34.93,34.93,0,0,1,68.45,106.35Z"/><path class="cls-2" d="M102.94,52.32l33.12,88.32,33.27-88.32h19.14v105.1H175.21V70h-.29l-32.83,87.44H130.17L97.34,70H97v87.44H83.8V52.32Z"/><path class="cls-3" d="M48.69,64.05V52.27h84.05V64.05h-35V157.4h-14V64.05Z"/></svg>